<?xml version="1.0" standalone="no"?>
<!DOCTYPE svg PUBLIC "-//W3C//DTD SVG 20010904//EN"
 "http://www.w3.org/TR/2001/REC-SVG-20010904/DTD/svg10.dtd">
<svg version="1.0" xmlns="http://www.w3.org/2000/svg"
 width="1076.000000pt" height="1066.000000pt" viewBox="0 0 1076.000000 1066.000000"
 preserveAspectRatio="xMidYMid meet">
<metadata>
Created by potrace 1.16, written by Peter Selinger 2001-2019
</metadata>
<g transform="translate(0.000000,1066.000000) scale(0.100000,-0.100000)"
fill="#000000" stroke="none">
<path d="M2533 5933 c-8 -21 -64 -138 -124 -261 -60 -124 -109 -226 -109 -228
0 -2 -66 -139 -269 -557 -40 -82 -71 -156 -69 -165 2 -10 12 -16 26 -15 12 0
36 1 52 2 19 1 33 7 37 19 3 9 47 100 96 202 49 102 111 230 137 285 103 220
214 445 219 445 3 0 12 -15 20 -32 8 -18 45 -98 83 -177 37 -79 68 -150 68
-157 0 -11 -24 -14 -109 -14 -120 0 -121 -1 -121 -65 0 -19 5 -37 11 -41 6 -4
69 -6 139 -6 70 0 132 -3 138 -7 13 -8 87 -157 186 -373 31 -70 38 -78 63 -78
15 -1 93 -1 173 -1 l144 1 26 32 c14 18 59 72 100 119 41 47 90 103 108 125
181 213 218 254 227 253 5 0 53 -58 105 -129 52 -71 98 -130 103 -130 4 0 7
-5 7 -11 0 -8 52 -81 70 -99 3 -3 32 -40 63 -82 37 -50 65 -78 78 -78 127 -3
223 0 230 7 4 4 -40 71 -98 148 -59 77 -156 205 -216 285 -61 80 -113 147
-116 150 -4 3 -24 29 -44 58 l-38 54 25 36 c14 21 38 51 54 67 29 31 258 297
327 380 57 69 57 75 -8 75 l-55 0 -59 -67 c-32 -37 -67 -79 -79 -93 -12 -14
-52 -61 -90 -105 -38 -44 -80 -93 -94 -109 -14 -17 -39 -45 -55 -64 l-31 -34
-44 58 c-24 33 -46 61 -50 64 -3 3 -17 21 -30 40 -14 19 -30 42 -37 50 -6 8
-31 40 -53 70 -23 30 -65 85 -93 123 l-51 67 -123 0 c-79 0 -124 -4 -129 -11
-3 -6 -2 -14 3 -18 5 -3 45 -53 88 -111 44 -58 83 -109 88 -115 4 -5 47 -62
94 -125 47 -63 110 -146 140 -183 30 -37 53 -72 51 -77 -3 -10 -396 -472 -474
-559 l-42 -46 -35 75 c-41 88 -114 242 -186 393 -28 59 -51 109 -51 111 0 3
-52 113 -191 404 -38 79 -81 170 -95 203 -25 55 -29 59 -61 59 -30 0 -36 -5
-50 -37z"/>
<path d="M4505 5960 c-3 -5 -1 -15 4 -22 6 -7 23 -29 39 -48 15 -19 34 -45 42
-56 20 -29 193 -258 200 -264 3 -3 45 -58 93 -123 l88 -118 -48 -56 c-26 -32
-55 -64 -63 -73 -8 -9 -35 -41 -60 -70 -25 -30 -63 -75 -85 -100 -22 -26 -62
-73 -90 -105 -27 -33 -68 -80 -90 -105 -22 -24 -48 -53 -58 -64 -31 -35 -18
-51 38 -48 52 3 80 24 144 107 12 17 48 58 78 93 30 34 82 95 116 134 33 40
65 78 71 84 6 6 31 34 54 63 24 28 48 51 52 51 5 0 41 -44 81 -97 40 -54 76
-100 79 -103 3 -3 54 -70 113 -150 60 -80 115 -153 122 -162 13 -16 36 -18
200 -18 l185 0 71 148 c76 157 137 284 229 477 114 242 155 324 161 325 3 0
23 -37 44 -82 21 -46 60 -128 86 -183 25 -55 45 -103 42 -107 -2 -5 -53 -8
-113 -8 -119 0 -120 -1 -120 -65 0 -19 5 -37 11 -41 6 -3 65 -6 131 -6 132 1
164 -6 177 -40 10 -25 31 -73 118 -258 32 -69 63 -133 69 -143 9 -16 28 -18
183 -18 95 -1 174 1 177 3 2 3 15 58 28 124 14 65 41 196 61 289 42 199 69
330 99 474 11 57 26 106 32 108 6 2 19 -16 30 -39 10 -24 21 -45 24 -48 3 -3
55 -104 116 -225 364 -723 358 -713 398 -681 8 6 126 235 262 508 137 273 251
495 253 492 3 -2 6 -10 7 -17 10 -50 33 -157 69 -317 10 -41 21 -93 26 -115 4
-22 24 -116 44 -210 21 -93 45 -208 54 -255 l17 -85 118 -5 c124 -5 144 0 132
37 -3 10 -17 77 -31 148 -13 72 -41 209 -61 305 -20 96 -40 195 -44 220 -8 51
-76 394 -90 455 -5 22 -11 53 -15 68 l-6 28 -111 -3 -111 -3 -236 -472 c-130
-260 -238 -473 -241 -473 -3 0 -69 127 -148 283 -78 155 -186 368 -240 472
l-97 190 -115 0 -114 0 -33 -165 c-18 -91 -37 -187 -43 -215 -6 -27 -22 -108
-35 -180 -14 -71 -30 -148 -35 -170 -5 -22 -28 -137 -51 -255 -22 -118 -43
-222 -45 -230 -3 -9 -12 0 -23 25 -10 22 -52 112 -93 200 -42 88 -87 185 -101
215 -14 30 -50 107 -80 170 -106 223 -230 486 -265 563 -21 45 -25 48 -54 45
-36 -3 -42 -13 -173 -288 -37 -80 -109 -228 -158 -330 -152 -314 -244 -506
-269 -559 -12 -28 -27 -51 -33 -51 -5 1 -23 19 -40 41 -16 22 -34 45 -40 52
-5 6 -73 95 -149 197 -77 102 -146 191 -153 198 -7 7 -13 17 -13 20 0 4 -10
18 -23 32 -34 38 -97 126 -97 137 0 5 8 18 18 29 9 10 53 61 97 113 44 52 137
161 208 243 70 81 127 152 127 158 0 11 -100 13 -116 2 -5 -4 -63 -70 -129
-147 -108 -129 -164 -193 -243 -284 l-29 -34 -39 49 c-22 28 -102 134 -179
237 l-140 187 -122 0 c-69 0 -124 -4 -128 -10z"/>
<path d="M4370 5478 c-59 -40 -75 -72 -75 -144 0 -62 2 -65 43 -107 42 -41 43
-42 113 -42 70 0 71 0 109 41 61 66 66 152 13 215 -52 61 -143 77 -203 37z
m139 -74 c63 -53 23 -154 -61 -154 -82 0 -120 101 -57 154 17 15 43 26 59 26
16 0 42 -11 59 -26z"/>
</g>
</svg>
